<mxfile host="app.diagrams.net" modified="2022-05-26T10:30:25.546Z" agent="5.0 (Macintosh; Intel Mac OS X 10_15_7) AppleWebKit/537.36 (KHTML, like Gecko) Chrome/101.0.4951.54 Safari/537.36" etag="RGgnCv3iW0IEbLEs3ZTU" version="18.1.2" type="github">
  <diagram id="vLs9QyJLtZuLEBvnlHL6" name="Page-1">
    <mxGraphModel dx="1376" dy="769" grid="0" gridSize="10" guides="1" tooltips="1" connect="1" arrows="1" fold="1" page="1" pageScale="1" pageWidth="827" pageHeight="1169" math="0" shadow="0">
      <root>
        <mxCell id="0" />
        <mxCell id="1" parent="0" />
        <mxCell id="ubgZJYbSErXbiuKwTt6X-5" value="" style="edgeStyle=orthogonalEdgeStyle;rounded=0;orthogonalLoop=1;jettySize=auto;html=1;fontSize=14;fontColor=#50857C;" edge="1" parent="1" source="ubgZJYbSErXbiuKwTt6X-1" target="ubgZJYbSErXbiuKwTt6X-3">
          <mxGeometry relative="1" as="geometry" />
        </mxCell>
        <mxCell id="ubgZJYbSErXbiuKwTt6X-1" value="QueryExecution" style="swimlane;fontStyle=1" vertex="1" parent="1">
          <mxGeometry x="226.38" y="103" width="189" height="67" as="geometry" />
        </mxCell>
        <mxCell id="ubgZJYbSErXbiuKwTt6X-2" value="&lt;pre style=&quot;font-family: &amp;quot;JetBrains Mono&amp;quot;, monospace; font-size: 9.8pt;&quot;&gt;&lt;span style=&quot;&quot;&gt;lazy val &lt;/span&gt;&lt;span style=&quot;font-style: italic;&quot;&gt;optimizedPlan&lt;/span&gt;&lt;/pre&gt;" style="text;html=1;align=center;verticalAlign=middle;resizable=0;points=[];autosize=1;strokeColor=none;fillColor=none;fontSize=14;fontColor=#50857C;labelBackgroundColor=none;fontStyle=0" vertex="1" parent="ubgZJYbSErXbiuKwTt6X-1">
          <mxGeometry x="3.5" y="20" width="182" height="47" as="geometry" />
        </mxCell>
        <mxCell id="ubgZJYbSErXbiuKwTt6X-11" value="" style="edgeStyle=orthogonalEdgeStyle;rounded=0;orthogonalLoop=1;jettySize=auto;html=1;fontSize=14;fontColor=#3333FF;" edge="1" parent="1" source="ubgZJYbSErXbiuKwTt6X-3" target="ubgZJYbSErXbiuKwTt6X-9">
          <mxGeometry relative="1" as="geometry" />
        </mxCell>
        <mxCell id="ubgZJYbSErXbiuKwTt6X-3" value="Optimizer&#xa;extends RuleExecutor" style="swimlane;fontStyle=1;labelBackgroundColor=none;startSize=37;" vertex="1" parent="1">
          <mxGeometry x="70.38" y="212" width="501" height="166" as="geometry" />
        </mxCell>
        <mxCell id="ubgZJYbSErXbiuKwTt6X-4" value="&lt;pre style=&quot;&quot;&gt;&lt;font face=&quot;JetBrains Mono, monospace&quot;&gt;&lt;span style=&quot;font-size: 13.0667px;&quot;&gt;protected def fixedPoint&lt;br&gt;def defaultBatches: Seq[Batch]  // 默认规则&lt;br&gt;def nonExcludableRules: Seq[String] // 不可排除规则&lt;br&gt;val excludedRulesConf = SQLConf.get... // 要排除规则&lt;br&gt;defaultBatches - (excludedRules - nonExcludableRules) //最终规则&lt;br&gt;final override def batches: Seq[Batch]&lt;/span&gt;&lt;/font&gt;&lt;br&gt;&lt;/pre&gt;" style="text;html=1;align=left;verticalAlign=middle;resizable=0;points=[];autosize=1;strokeColor=none;fillColor=none;fontSize=14;fontColor=#50857C;labelBackgroundColor=none;fontStyle=0" vertex="1" parent="ubgZJYbSErXbiuKwTt6X-3">
          <mxGeometry x="3.000000000000001" y="34" width="501" height="134" as="geometry" />
        </mxCell>
        <mxCell id="ubgZJYbSErXbiuKwTt6X-7" value="入口" style="text;html=1;strokeColor=none;fillColor=none;align=center;verticalAlign=middle;whiteSpace=wrap;rounded=0;labelBackgroundColor=none;fontSize=14;fontColor=#3333FF;" vertex="1" parent="1">
          <mxGeometry x="425.38" y="124" width="60" height="30" as="geometry" />
        </mxCell>
        <mxCell id="ubgZJYbSErXbiuKwTt6X-8" value="规则" style="text;html=1;strokeColor=none;fillColor=none;align=center;verticalAlign=middle;whiteSpace=wrap;rounded=0;labelBackgroundColor=none;fontSize=14;fontColor=#3333FF;" vertex="1" parent="1">
          <mxGeometry x="573" y="283" width="60" height="30" as="geometry" />
        </mxCell>
        <mxCell id="ubgZJYbSErXbiuKwTt6X-9" value="RuleExecutor" style="swimlane;fontStyle=1;labelBackgroundColor=none;startSize=37;" vertex="1" parent="1">
          <mxGeometry x="206.7" y="429" width="228.35" height="82" as="geometry">
            <mxRectangle x="150.32" y="526" width="104" height="37" as="alternateBounds" />
          </mxGeometry>
        </mxCell>
        <mxCell id="ubgZJYbSErXbiuKwTt6X-10" value="&lt;pre style=&quot;&quot;&gt;&lt;font face=&quot;JetBrains Mono, monospace&quot;&gt;&lt;span style=&quot;font-size: 13.0667px;&quot;&gt;def execute(plan: TreeType)&lt;/span&gt;&lt;/font&gt;&lt;/pre&gt;" style="text;html=1;align=left;verticalAlign=middle;resizable=0;points=[];autosize=1;strokeColor=none;fillColor=none;fontSize=14;fontColor=#50857C;labelBackgroundColor=none;fontStyle=0" vertex="1" parent="ubgZJYbSErXbiuKwTt6X-9">
          <mxGeometry x="6.349999999999994" y="33" width="222" height="49" as="geometry" />
        </mxCell>
        <mxCell id="ubgZJYbSErXbiuKwTt6X-13" value="最终调用父类的 execute 方法，方法中定义如何把规则应用到 plan 上得到新的 plan" style="text;html=1;strokeColor=none;fillColor=none;align=left;verticalAlign=middle;whiteSpace=wrap;rounded=0;labelBackgroundColor=none;fontSize=14;fontColor=#3333FF;" vertex="1" parent="1">
          <mxGeometry x="448" y="434.5" width="218.62" height="71" as="geometry" />
        </mxCell>
      </root>
    </mxGraphModel>
  </diagram>
</mxfile>
